<svg xmlns="http://www.w3.org/2000/svg" viewBox="0 0 410 126" preserveAspectRatio="xMidYMid meet" id="bfdbhfgf"><defs id="SvgjsDefs7174"/><g id="SvgjsG7175" featurekey="symbolFeature-0" transform="matrix(4.076108455657959,0,0,4.076108455657959,-4.072726698634899,-2.270511510811734)" fill="#fff"><title xmlns="http://www.w3.org/2000/svg">video</title><path xmlns="http://www.w3.org/2000/svg" d="M29,29H23.452A14.975,14.975,0,1,0,16,31H29a1,1,0,0,0,0-2ZM16,5a4,4,0,1,1-4,4A4,4,0,0,1,16,5ZM9,20a4,4,0,1,1,4-4A4,4,0,0,1,9,20Zm7,7a4,4,0,1,1,4-4A4,4,0,0,1,16,27Zm3-11a4,4,0,1,1,4,4A4,4,0,0,1,19,16Z"/></g><g id="SvgjsG7176" featurekey="nameGroupContainer" transform="matrix(1,0,0,1,142,0)" fill="#fff"><rect xmlns="http://www.w3.org/2000/svg" width="268" height="126" rx="10" ry="10"/></g><g id="SvgjsG7177" featurekey="nameFeature-0" transform="matrix(1.3543641567230225,0,0,1.3543641567230225,157.66603703525365,11.061196985622281)" fill="#111"><path d="M36.6 7.039999999999999 c1.32 0 2.24 0.44 2.72 1.28 c0.44 0.76 0.64 2.04 0.64 3.88 l0 26.44 c0 1.24 -0.8 1.4 -1.16 1.4 l-3.44 0 c-0.32 0 -1.12 -0.16 -1.12 -1.4 l0 -24.12 l-0.2 0 c-0.04 0 -0.08 0 -0.08 0.08 l-6.88 16.96 c-0.28 0.84 -0.56 1.56 -0.84 2.16 s-0.64 1.08 -0.96 1.48 c-0.36 0.4 -0.8 0.72 -1.28 0.88 c-0.44 0.16 -1 0.24 -1.6 0.24 l-1.64 0 c-0.6 0 -1.12 -0.08 -1.6 -0.24 s-0.88 -0.48 -1.28 -0.88 c-0.32 -0.4 -0.64 -0.88 -0.96 -1.48 c-0.28 -0.6 -0.56 -1.32 -0.84 -2.16 l-6.84 -16.92 c-0.04 -0.12 -0.08 -0.12 -0.12 -0.12 l-0.2 0 l0 24.12 c0 1.24 -0.76 1.4 -1.12 1.4 l-3.44 0 c-0.36 0 -1.16 -0.16 -1.16 -1.4 l0 -26.44 c0 -1.84 0.2 -3.12 0.64 -3.88 c0.48 -0.84 1.4 -1.28 2.76 -1.28 l3.68 0 c0.52 0 1 0.04 1.4 0.16 s0.8 0.32 1.12 0.6 c0.28 0.32 0.56 0.68 0.8 1.16 c0.2 0.48 0.44 1.08 0.68 1.84 l7.04 17.68 c0.04 0.16 0.12 0.16 0.12 0.16 l0.4 0 c0.04 0 0.08 0 0.12 -0.16 l7.08 -17.68 c0.24 -0.76 0.44 -1.36 0.68 -1.84 s0.52 -0.84 0.8 -1.16 c0.32 -0.28 0.68 -0.48 1.08 -0.6 s0.84 -0.16 1.4 -0.16 l3.6 0 z M76.729 9.96 c0.8 1 1.36 2.32 1.72 3.92 c0.32 1.56 0.52 3.48 0.52 5.68 l0 7.92 c0 2.24 -0.2 4.16 -0.52 5.72 c-0.36 1.6 -0.92 2.92 -1.72 3.96 c-0.8 1 -1.84 1.76 -3.12 2.2 c-1.24 0.44 -2.76 0.68 -4.52 0.68 l-9.76 0 c-1.76 0 -3.28 -0.24 -4.48 -0.68 c-1.28 -0.44 -2.32 -1.2 -3.12 -2.24 c-0.76 -1 -1.36 -2.32 -1.72 -3.92 c-0.36 -1.56 -0.52 -3.48 -0.52 -5.72 l0 -7.92 c0 -2.24 0.16 -4.12 0.52 -5.68 c0.36 -1.6 0.96 -2.92 1.72 -3.92 c0.8 -1 1.84 -1.76 3.12 -2.24 c1.24 -0.44 2.72 -0.68 4.48 -0.68 l9.76 0 c1.76 0 3.28 0.24 4.52 0.68 c1.28 0.48 2.32 1.24 3.12 2.24 z M73.009 18.88 c0 -1.16 -0.04 -2.16 -0.2 -2.96 c-0.12 -0.76 -0.36 -1.36 -0.68 -1.8 c-0.28 -0.4 -0.68 -0.68 -1.2 -0.88 c-0.52 -0.16 -1.2 -0.28 -2.04 -0.28 l-9.36 0 c-0.84 0 -1.52 0.12 -2.04 0.28 c-0.52 0.2 -0.92 0.48 -1.2 0.88 c-0.32 0.44 -0.52 1.04 -0.68 1.8 c-0.12 0.8 -0.2 1.8 -0.2 2.96 l0 9.32 c0 1.16 0.08 2.16 0.2 2.96 c0.16 0.72 0.36 1.36 0.68 1.76 c0.28 0.44 0.68 0.72 1.2 0.88 c0.52 0.2 1.2 0.28 2.04 0.28 l9.36 0 c0.84 0 1.52 -0.08 2.04 -0.28 c0.52 -0.16 0.92 -0.44 1.2 -0.88 c0.32 -0.4 0.56 -1.04 0.68 -1.76 c0.16 -0.8 0.2 -1.8 0.2 -2.96 l0 -9.32 z M120.378 6.600000000000001 c0.6 0 0.8 0.36 0.88 0.56 c0.08 0.28 0.04 0.6 -0.12 1 l-11.12 27.68 c-0.6 1.44 -1.16 2.4 -1.76 2.92 c-0.16 0.16 -0.36 0.28 -0.6 0.4 c-0.8 0.56 -1.76 0.88 -2.76 0.88 c-2.2 0 -4.16 -1.48 -4.76 -3.6 l-0.28 -0.6 l-11.2 -27.68 c-0.16 -0.4 -0.2 -0.72 -0.12 -1 c0.04 -0.16 0.24 -0.56 0.84 -0.56 l4.32 0 c0.56 0 0.96 0.28 1.12 0.84 l9.96 24.76 c0.04 0.08 0.04 0.12 0.04 0.12 l0.16 -0.04 s0.04 0 0.04 -0.08 l9.8 -24.76 c0.24 -0.56 0.64 -0.84 1.16 -0.84 l4.4 0 z M135.627 7.039999999999999 c0.32 0 1.12 0.16 1.12 1.4 l0 30.2 c0 1.24 -0.8 1.4 -1.12 1.4 l-3.68 0 c-0.32 0 -1.12 -0.16 -1.12 -1.4 l0 -30.2 c0 -1.24 0.8 -1.4 1.12 -1.4 l3.68 0 z M170.31600000000003 32.84 c0.36 0 1.16 0.12 1.16 1.36 l0 4.4 c0 1.24 -0.8 1.36 -1.16 1.36 l-14.2 0 c-1.76 0 -3.24 -0.2 -4.48 -0.68 c-1.28 -0.44 -2.32 -1.16 -3.12 -2.2 c-0.76 -1 -1.36 -2.32 -1.72 -3.92 c-0.28 -1.32 -0.48 -2.92 -0.52 -4.8 l0 -0.2 l0.08 -5.04 c0.08 -0.36 0.24 -0.68 0.44 -1 c0.56 -1 1.56 -1.6 2.72 -1.68 l20.64 -0.04 c0.32 0 1.12 0.12 1.12 1.36 l0 3.16 c0 1.24 -0.8 1.4 -1.12 1.4 l-17.88 0 c-0.04 0 -0.08 2.88 -0.08 2.88 l0.08 0.68 c0.12 0.76 0.36 1.36 0.68 1.8 c0.32 0.4 0.68 0.68 1.2 0.88 c0.56 0.16 1.24 0.28 2.08 0.28 l14.08 0 z M170.35600000000002 6.960000000000001 c0.32 0 1.12 0.16 1.12 1.4 l0 3.16 c0 1.24 -0.8 1.4 -1.12 1.4 l-23 -0.04 c-0.32 0 -1.08 -0.12 -1.08 -1.36 l0 -3.12 c0 -1.28 0.76 -1.44 1.08 -1.44 l23 0 z"/></g><g id="SvgjsG7178" featurekey="nameFeature-1" transform="matrix(0.9136232733726501,0,0,0.9136232733726501,159.07640655147415,69.00663133940425)" fill="#111"><path d="M31.24 38.28 c0.16 0.24 0.2 0.56 0.16 0.96 c-0.08 0.48 -0.44 0.8 -0.92 0.8 l-4.4 0 c-0.36 0 -0.64 -0.08 -0.84 -0.24 c-0.16 -0.12 -0.28 -0.32 -0.44 -0.56 l-7.24 -12.84 l-8.44 0 l0 12.24 c0 1.24 -0.76 1.4 -1.12 1.4 l-3.64 0 c-0.36 0 -1.16 -0.16 -1.16 -1.4 l0 -16.8 c0 -1.24 0.8 -1.36 1.16 -1.36 l17.4 0 c1.04 0 1.72 -0.28 2.12 -0.88 c0.44 -0.6 0.64 -1.56 0.64 -2.88 s-0.2 -2.28 -0.64 -2.88 c-0.4 -0.6 -1.08 -0.88 -2.12 -0.88 l-17.4 0 c-0.36 0 -1.16 -0.12 -1.16 -1.36 l0 -3.16 c0 -1.28 0.8 -1.4 1.16 -1.4 l18.44 0 c2.72 0 4.72 0.84 5.92 2.56 c1.08 1.64 1.68 3.96 1.76 7 l0 0.24 c-0.08 3.08 -0.68 5.4 -1.76 7 c-1 1.36 -2.52 2.2 -4.48 2.44 z M65.009 32.84 c0.36 0 1.16 0.12 1.16 1.36 l0 4.4 c0 1.24 -0.8 1.36 -1.16 1.36 l-14.2 0 c-1.76 0 -3.24 -0.2 -4.48 -0.68 c-1.28 -0.44 -2.32 -1.16 -3.12 -2.2 c-0.76 -1 -1.36 -2.32 -1.72 -3.92 c-0.28 -1.32 -0.48 -2.92 -0.52 -4.8 l0 -0.2 l0.08 -5.04 c0.08 -0.36 0.24 -0.68 0.44 -1 c0.56 -1 1.56 -1.6 2.72 -1.68 l20.64 -0.04 c0.32 0 1.12 0.12 1.12 1.36 l0 3.16 c0 1.24 -0.8 1.4 -1.12 1.4 l-17.88 0 c-0.04 0 -0.08 2.88 -0.08 2.88 l0.08 0.68 c0.12 0.76 0.36 1.36 0.68 1.8 c0.32 0.4 0.68 0.68 1.2 0.88 c0.56 0.16 1.24 0.28 2.08 0.28 l14.08 0 z M65.049 6.960000000000001 c0.32 0 1.12 0.16 1.12 1.4 l0 3.16 c0 1.24 -0.8 1.4 -1.12 1.4 l-23 -0.04 c-0.32 0 -1.08 -0.12 -1.08 -1.36 l0 -3.12 c0 -1.28 0.76 -1.44 1.08 -1.44 l23 0 z M107.57799999999999 6.600000000000001 c0.6 0 0.8 0.36 0.88 0.56 c0.08 0.28 0.04 0.6 -0.12 1 l-11.12 27.68 c-0.6 1.44 -1.16 2.4 -1.76 2.92 c-0.16 0.16 -0.36 0.28 -0.6 0.4 c-0.8 0.56 -1.76 0.88 -2.76 0.88 c-2.2 0 -4.16 -1.48 -4.76 -3.6 l-0.28 -0.6 l-11.2 -27.68 c-0.16 -0.4 -0.2 -0.72 -0.12 -1 c0.04 -0.16 0.24 -0.56 0.84 -0.56 l4.32 0 c0.56 0 0.96 0.28 1.12 0.84 l9.96 24.76 c0.04 0.08 0.04 0.12 0.04 0.12 l0.16 -0.04 s0.04 0 0.04 -0.08 l9.8 -24.76 c0.24 -0.56 0.64 -0.84 1.16 -0.84 l4.4 0 z M122.827 7.039999999999999 c0.32 0 1.12 0.16 1.12 1.4 l0 30.2 c0 1.24 -0.8 1.4 -1.12 1.4 l-3.68 0 c-0.32 0 -1.12 -0.16 -1.12 -1.4 l0 -30.2 c0 -1.24 0.8 -1.4 1.12 -1.4 l3.68 0 z M157.51600000000002 32.84 c0.36 0 1.16 0.12 1.16 1.36 l0 4.4 c0 1.24 -0.8 1.36 -1.16 1.36 l-14.2 0 c-1.76 0 -3.24 -0.2 -4.48 -0.68 c-1.28 -0.44 -2.32 -1.16 -3.12 -2.2 c-0.76 -1 -1.36 -2.32 -1.72 -3.92 c-0.28 -1.32 -0.48 -2.92 -0.52 -4.8 l0 -0.2 l0.08 -5.04 c0.08 -0.36 0.24 -0.68 0.44 -1 c0.56 -1 1.56 -1.6 2.72 -1.68 l20.64 -0.04 c0.32 0 1.12 0.12 1.12 1.36 l0 3.16 c0 1.24 -0.8 1.4 -1.12 1.4 l-17.88 0 c-0.04 0 -0.08 2.88 -0.08 2.88 l0.08 0.68 c0.12 0.76 0.36 1.36 0.68 1.8 c0.32 0.4 0.68 0.68 1.2 0.88 c0.56 0.16 1.24 0.28 2.08 0.28 l14.08 0 z M157.556 6.960000000000001 c0.32 0 1.12 0.16 1.12 1.4 l0 3.16 c0 1.24 -0.8 1.4 -1.12 1.4 l-23 -0.04 c-0.32 0 -1.08 -0.12 -1.08 -1.36 l0 -3.12 c0 -1.28 0.76 -1.44 1.08 -1.44 l23 0 z M216.525 6.560000000000002 c0.64 0 0.84 0.36 0.88 0.6 c0.08 0.28 0.04 0.6 -0.08 0.96 l-8.92 27.68 c-0.6 1.48 -1.16 2.44 -1.76 2.96 c-0.16 0.12 -0.36 0.28 -0.6 0.4 c-0.8 0.56 -1.76 0.84 -2.76 0.84 c-2.2 0 -4.16 -1.48 -4.76 -3.56 l-0.28 -0.6 l-5.52 -18.44 l-5.92 18.4 c-0.6 1.48 -1.2 2.44 -1.76 2.96 c-0.2 0.12 -0.36 0.28 -0.6 0.4 c-0.8 0.56 -1.76 0.84 -2.76 0.84 c-2.2 0 -4.16 -1.48 -4.76 -3.56 l-0.28 -0.6 l-8.28 -27.72 c-0.16 -0.36 -0.16 -0.68 -0.08 -0.96 c0.04 -0.2 0.2 -0.6 0.84 -0.6 l4.28 0 c0.56 0 0.96 0.32 1.16 0.88 l7 24.04 c0 0.04 0.04 0.08 0.04 0.08 l0.16 -0.04 l0.04 -0.08 l7.56 -24 c0.24 -0.56 0.64 -0.88 1.16 -0.88 l4.52 0 c0.52 0 0.92 0.32 1.12 0.88 l7 24.04 c0 0.04 0.04 0.08 0.04 0.08 l0.16 -0.04 l0.04 -0.08 l7.56 -24 c0.24 -0.56 0.64 -0.88 1.16 -0.88 l4.4 0 z M246.334 20.32 c2.08 0 3.68 0.76 4.76 2.2 c1.04 1.44 1.56 3.48 1.56 6.08 l0 3.52 c0 2.32 -0.52 4.2 -1.52 5.64 c-1.04 1.48 -2.68 2.24 -4.88 2.24 l-18.04 0 c-0.36 0 -1.16 -0.12 -1.16 -1.36 l0 -3.2 c0 -1.24 0.8 -1.36 1.16 -1.36 l17.08 0 c0.68 0 0.92 -0.28 1.08 -0.52 c0.24 -0.4 0.36 -0.96 0.36 -1.68 l0 -3.44 c0 -1.96 -0.8 -2.2 -1.4 -2.2 l-12 0 c-1.68 0 -3.52 -0.24 -4.76 -1.88 c-1 -1.4 -1.56 -3.64 -1.56 -6.4 l0 -3.04 c0 -2.32 0.52 -4.24 1.56 -5.68 c1.04 -1.48 2.64 -2.2 4.84 -2.2 l17.24 0 c0.32 0 1.12 0.12 1.12 1.36 l0 3.2 c0 1.24 -0.8 1.36 -1.12 1.36 l-16.28 0 c-0.68 0 -0.92 0.28 -1.08 0.52 c-0.2 0.4 -0.32 0.96 -0.32 1.68 l0 2.96 c0 1.96 0.76 2.2 1.36 2.2 l12 0 z"/></g></svg>