<svg xmlns="http://www.w3.org/2000/svg" viewBox="0 0 122.09302325581397 122.08893383713453"><g transform="translate(-4.072726698634899, -4.270511510811734) scale(4.0761086323336775)" class="css-11tut30" fill="#d94343"><title xmlns="http://www.w3.org/2000/svg">video</title><path xmlns="http://www.w3.org/2000/svg" d="M29,29H23.452A14.975,14.975,0,1,0,16,31H29a1,1,0,0,0,0-2ZM16,5a4,4,0,1,1-4,4A4,4,0,0,1,16,5ZM9,20a4,4,0,1,1,4-4A4,4,0,0,1,9,20Zm7,7a4,4,0,1,1,4-4A4,4,0,0,1,16,27Zm3-11a4,4,0,1,1,4,4A4,4,0,0,1,19,16Z"/></g></svg>